<?xml version="1.0" encoding="UTF-8"?>
<svg xmlns="http://www.w3.org/2000/svg" width="30.0mm" height="30.0mm" viewBox="0 0 10 10" shape-rendering="crispEdges">
<rect width="10" height="10" fill="#fff"/>
<rect x="1" y="1" width="1" height="1" fill="#000"/>
<rect x="2" y="1" width="1" height="1" fill="#000"/>
<rect x="3" y="1" width="1" height="1" fill="#000"/>
<rect x="4" y="1" width="1" height="1" fill="#000"/>
<rect x="5" y="1" width="1" height="1" fill="#000"/>
<rect x="6" y="1" width="1" height="1" fill="#000"/>
<rect x="7" y="1" width="1" height="1" fill="#000"/>
<rect x="8" y="1" width="1" height="1" fill="#000"/>
<rect x="1" y="2" width="1" height="1" fill="#000"/>
<rect x="4" y="2" width="1" height="1" fill="#000"/>
<rect x="6" y="2" width="1" height="1" fill="#000"/>
<rect x="8" y="2" width="1" height="1" fill="#000"/>
<rect x="1" y="3" width="1" height="1" fill="#000"/>
<rect x="2" y="3" width="1" height="1" fill="#000"/>
<rect x="6" y="3" width="1" height="1" fill="#000"/>
<rect x="8" y="3" width="1" height="1" fill="#000"/>
<rect x="1" y="4" width="1" height="1" fill="#000"/>
<rect x="2" y="4" width="1" height="1" fill="#000"/>
<rect x="5" y="4" width="1" height="1" fill="#000"/>
<rect x="6" y="4" width="1" height="1" fill="#000"/>
<rect x="7" y="4" width="1" height="1" fill="#000"/>
<rect x="8" y="4" width="1" height="1" fill="#000"/>
<rect x="1" y="5" width="1" height="1" fill="#000"/>
<rect x="3" y="5" width="1" height="1" fill="#000"/>
<rect x="5" y="5" width="1" height="1" fill="#000"/>
<rect x="6" y="5" width="1" height="1" fill="#000"/>
<rect x="7" y="5" width="1" height="1" fill="#000"/>
<rect x="8" y="5" width="1" height="1" fill="#000"/>
<rect x="1" y="6" width="1" height="1" fill="#000"/>
<rect x="2" y="6" width="1" height="1" fill="#000"/>
<rect x="4" y="6" width="1" height="1" fill="#000"/>
<rect x="7" y="6" width="1" height="1" fill="#000"/>
<rect x="8" y="6" width="1" height="1" fill="#000"/>
<rect x="1" y="7" width="1" height="1" fill="#000"/>
<rect x="2" y="7" width="1" height="1" fill="#000"/>
<rect x="3" y="7" width="1" height="1" fill="#000"/>
<rect x="4" y="7" width="1" height="1" fill="#000"/>
<rect x="6" y="7" width="1" height="1" fill="#000"/>
<rect x="7" y="7" width="1" height="1" fill="#000"/>
<rect x="8" y="7" width="1" height="1" fill="#000"/>
<rect x="1" y="8" width="1" height="1" fill="#000"/>
<rect x="2" y="8" width="1" height="1" fill="#000"/>
<rect x="3" y="8" width="1" height="1" fill="#000"/>
<rect x="4" y="8" width="1" height="1" fill="#000"/>
<rect x="5" y="8" width="1" height="1" fill="#000"/>
<rect x="6" y="8" width="1" height="1" fill="#000"/>
<rect x="7" y="8" width="1" height="1" fill="#000"/>
<rect x="8" y="8" width="1" height="1" fill="#000"/>
</svg>
